<?xml version="1.0" encoding="UTF-8"?>
<svg xmlns="http://www.w3.org/2000/svg" xmlns:xlink="http://www.w3.org/1999/xlink" width="24pt" height="24pt" viewBox="0 0 24 24" version="1.1">
<defs>
<clipPath id="clip1">
  <rect x="0" y="0" width="24" height="24"/>
</clipPath>
<g id="surface5" clip-path="url(#clip1)">
<path style=" stroke:none;fill-rule:nonzero;fill:rgb(100%,100%,100%);fill-opacity:1;" d="M 22.964844 18.789062 C 22.964844 19.25 22.800781 19.648438 22.464844 19.980469 C 22.132812 20.3125 21.738281 20.480469 21.277344 20.480469 L 15.335938 20.480469 C 15.335938 21.414062 15 22.214844 14.335938 22.878906 C 13.671875 23.546875 12.871094 23.878906 11.933594 23.878906 C 11 23.878906 10.199219 23.546875 9.53125 22.878906 C 8.867188 22.214844 8.535156 21.414062 8.535156 20.480469 L 2.589844 20.480469 C 2.132812 20.480469 1.734375 20.3125 1.402344 19.980469 C 1.070312 19.648438 0.902344 19.25 0.902344 18.789062 C 1.347656 18.410156 1.75 18.023438 2.117188 17.625 C 2.480469 17.230469 2.851562 16.699219 3.234375 16.03125 C 3.613281 15.367188 3.945312 14.664062 4.230469 13.917969 C 4.515625 13.171875 4.730469 12.261719 4.875 11.183594 C 5.015625 10.105469 5.101562 8.957031 5.132812 7.734375 C 5.132812 6.40625 5.65625 5.160156 6.703125 4.003906 C 7.75 2.847656 9.105469 2.140625 10.769531 1.886719 C 10.691406 1.730469 10.652344 1.5625 10.652344 1.386719 C 10.652344 1.023438 10.777344 0.722656 11.03125 0.484375 C 11.285156 0.246094 11.585938 0.121094 11.933594 0.105469 C 12.28125 0.0898438 12.585938 0.214844 12.835938 0.484375 C 13.089844 0.753906 13.21875 1.054688 13.21875 1.386719 C 13.21875 1.5625 13.179688 1.730469 13.097656 1.886719 C 14.777344 2.140625 16.132812 2.847656 17.164062 4.003906 C 18.195312 5.160156 18.71875 6.40625 18.734375 7.734375 C 18.734375 8.972656 18.820312 10.121094 18.996094 11.183594 C 19.171875 12.246094 19.390625 13.15625 19.660156 13.917969 C 19.929688 14.679688 20.253906 15.382812 20.636719 16.03125 C 21.015625 16.683594 21.398438 17.214844 21.777344 17.625 C 22.15625 18.039062 22.554688 18.425781 22.964844 18.789062 Z M 3.304688 18.789062 L 20.566406 18.789062 C 18.203125 16.128906 17.023438 12.441406 17.023438 7.734375 C 17.023438 7.292969 16.917969 6.832031 16.714844 6.355469 C 16.507812 5.882812 16.199219 5.421875 15.785156 4.976562 C 15.375 4.535156 14.84375 4.175781 14.195312 3.90625 C 13.542969 3.636719 12.792969 3.503906 11.933594 3.503906 C 11.078125 3.503906 10.328125 3.636719 9.675781 3.90625 C 9.027344 4.175781 8.496094 4.535156 8.085938 4.976562 C 7.671875 5.421875 7.363281 5.878906 7.15625 6.355469 C 6.949219 6.832031 6.847656 7.292969 6.847656 7.734375 C 6.847656 12.441406 5.664062 16.128906 3.304688 18.789062 Z M 12.148438 22.59375 C 12.148438 22.46875 12.078125 22.40625 11.933594 22.40625 C 11.410156 22.40625 10.960938 22.214844 10.578125 21.835938 C 10.199219 21.453125 10.015625 21.003906 10.03125 20.480469 C 10.03125 20.335938 9.960938 20.265625 9.820312 20.265625 C 9.675781 20.265625 9.605469 20.335938 9.605469 20.480469 C 9.605469 21.128906 9.835938 21.683594 10.292969 22.144531 C 10.753906 22.601562 11.300781 22.824219 11.933594 22.808594 C 12.078125 22.808594 12.148438 22.738281 12.148438 22.59375 Z M 12.148438 22.59375 "/>
</g>
</defs>
<g id="surface1">
<use xlink:href="#surface5"/>
</g>
</svg>
