<?xml version="1.0" encoding="UTF-8"?>
<svg xmlns="http://www.w3.org/2000/svg" xmlns:xlink="http://www.w3.org/1999/xlink" width="24pt" height="24pt" viewBox="0 0 24 24" version="1.1">
<defs>
<clipPath id="clip1">
  <rect x="0" y="0" width="24" height="24"/>
</clipPath>
<g id="surface5" clip-path="url(#clip1)">
<path style=" stroke:none;fill-rule:nonzero;fill:rgb(56.862745%,56.862745%,56.862745%);fill-opacity:1;" d="M 0.046875 18.058594 L 0.046875 6.09375 C 0.046875 5.472656 0.261719 4.945312 0.695312 4.511719 C 1.125 4.082031 1.660156 3.859375 2.296875 3.84375 L 16.511719 3.84375 C 17.136719 3.84375 17.664062 4.066406 18.09375 4.511719 C 18.523438 4.960938 18.738281 5.488281 18.738281 6.09375 L 18.738281 7.027344 L 20.75 5.015625 C 21.070312 4.746094 21.429688 4.609375 21.828125 4.609375 L 22.472656 4.609375 C 22.886719 4.609375 23.238281 4.753906 23.527344 5.039062 C 23.8125 5.328125 23.964844 5.679688 23.980469 6.09375 L 23.980469 18.058594 C 23.980469 18.488281 23.828125 18.847656 23.527344 19.136719 C 23.222656 19.421875 22.871094 19.558594 22.472656 19.542969 L 21.828125 19.542969 C 21.429688 19.542969 21.070312 19.40625 20.75 19.136719 L 18.738281 17.125 L 18.738281 18.058594 C 18.738281 18.679688 18.523438 19.207031 18.09375 19.636719 C 17.660156 20.070312 17.136719 20.292969 16.511719 20.308594 L 2.296875 20.308594 C 1.675781 20.308594 1.140625 20.085938 0.691406 19.636719 C 0.246094 19.191406 0.03125 18.664062 0.046875 18.058594 Z M 1.554688 18.058594 C 1.554688 18.28125 1.617188 18.457031 1.746094 18.585938 C 1.875 18.714844 2.058594 18.785156 2.296875 18.800781 L 16.511719 18.800781 C 16.71875 18.800781 16.894531 18.730469 17.039062 18.585938 C 17.183594 18.441406 17.253906 18.265625 17.253906 18.058594 L 17.253906 6.09375 C 17.253906 5.871094 17.183594 5.695312 17.039062 5.566406 C 16.894531 5.4375 16.71875 5.367188 16.511719 5.351562 L 2.296875 5.351562 C 2.074219 5.351562 1.890625 5.421875 1.746094 5.566406 C 1.601562 5.710938 1.539062 5.886719 1.554688 6.09375 Z M 17.996094 14.324219 L 21.730469 18.058594 L 22.472656 18.058594 L 22.472656 6.09375 L 21.730469 6.09375 L 17.996094 9.828125 Z M 17.996094 14.324219 "/>
</g>
</defs>
<g id="surface1">
<use xlink:href="#surface5"/>
</g>
</svg>
