<?xml version="1.0" encoding="UTF-8"?>
<svg xmlns="http://www.w3.org/2000/svg" xmlns:xlink="http://www.w3.org/1999/xlink" width="24pt" height="24pt" viewBox="0 0 24 24" version="1.1">
<defs>
<clipPath id="clip1">
  <rect x="0" y="0" width="24" height="24"/>
</clipPath>
<g id="surface5" clip-path="url(#clip1)">
<path style=" stroke:none;fill-rule:nonzero;fill:rgb(56.862745%,56.862745%,56.862745%);fill-opacity:1;" d="M 23.160156 10.429688 C 23.6875 10.847656 23.953125 11.402344 23.953125 12.097656 C 23.953125 12.679688 23.746094 13.1875 23.328125 13.617188 C 22.910156 14.046875 22.390625 14.261719 21.765625 14.261719 L 20.703125 14.261719 L 20.703125 20.761719 C 20.703125 21.375 20.488281 21.894531 20.058594 22.324219 C 19.628906 22.753906 19.113281 22.964844 18.515625 22.949219 L 5.5 22.949219 C 4.914062 22.949219 4.410156 22.742188 3.976562 22.324219 C 3.546875 21.90625 3.332031 21.386719 3.332031 20.761719 L 3.332031 14.261719 L 2.25 14.261719 C 1.636719 14.261719 1.125 14.046875 0.707031 13.617188 C 0.292969 13.1875 0.0820312 12.679688 0.0820312 12.097656 C 0.0820312 11.457031 0.332031 10.910156 0.832031 10.453125 C 1.929688 9.535156 3.347656 8.328125 5.082031 6.828125 C 6.820312 5.328125 8.285156 4.070312 9.476562 3.058594 L 12.019531 0.890625 L 12.746094 1.496094 L 14.539062 3.058594 C 15.71875 4.085938 17.183594 5.339844 18.933594 6.828125 Z M 18.515625 12.097656 L 21.765625 12.097656 C 18.558594 9.402344 15.308594 6.625 12.019531 3.765625 C 8.714844 6.625 5.457031 9.402344 2.25 12.097656 L 5.5 12.097656 L 5.5 20.761719 L 8.75 20.761719 L 8.75 14.261719 L 15.269531 14.261719 L 15.269531 20.761719 L 18.515625 20.761719 Z M 14.203125 20.761719 L 14.203125 15.347656 L 9.851562 15.347656 L 9.851562 20.761719 Z M 14.203125 20.761719 "/>
</g>
</defs>
<g id="surface1">
<use xlink:href="#surface5"/>
</g>
</svg>
