<?xml version="1.0" encoding="UTF-8"?>
<svg xmlns="http://www.w3.org/2000/svg" xmlns:xlink="http://www.w3.org/1999/xlink" width="24pt" height="24pt" viewBox="0 0 24 24" version="1.1">
<defs>
<clipPath id="clip1">
  <rect x="0" y="0" width="24" height="24"/>
</clipPath>
<g id="surface5" clip-path="url(#clip1)">
<path style=" stroke:none;fill-rule:nonzero;fill:rgb(56.862745%,56.862745%,56.862745%);fill-opacity:1;" d="M 17.820312 10.53125 C 18.230469 10.660156 18.625 10.832031 19 11.050781 C 19.378906 11.273438 19.773438 11.589844 20.183594 12 C 20.59375 12.410156 20.941406 12.921875 21.226562 13.535156 C 21.507812 14.152344 21.753906 14.90625 21.957031 15.808594 C 22.164062 16.707031 22.257812 17.746094 22.242188 18.929688 C 22.242188 20.285156 21.800781 21.445312 20.917969 22.40625 C 20.035156 23.367188 18.976562 23.847656 17.75 23.847656 L 6.464844 23.847656 C 5.234375 23.847656 4.175781 23.367188 3.292969 22.40625 C 2.410156 21.445312 1.96875 20.285156 1.96875 18.929688 C 1.96875 17.777344 2.066406 16.738281 2.253906 15.808594 C 2.445312 14.875 2.6875 14.121094 2.988281 13.535156 C 3.285156 12.953125 3.632812 12.441406 4.027344 12 C 4.421875 11.558594 4.816406 11.242188 5.210938 11.050781 C 5.605469 10.863281 6 10.6875 6.394531 10.53125 C 5.699219 9.445312 5.351562 8.253906 5.351562 6.960938 C 5.351562 6.046875 5.535156 5.171875 5.898438 4.335938 C 6.261719 3.5 6.742188 2.78125 7.339844 2.179688 C 7.9375 1.582031 8.65625 1.101562 9.492188 0.738281 C 10.328125 0.375 11.203125 0.195312 12.117188 0.195312 C 13.03125 0.195312 13.898438 0.375 14.71875 0.738281 C 15.539062 1.101562 16.265625 1.582031 16.898438 2.179688 C 17.527344 2.78125 18.007812 3.5 18.339844 4.332031 C 18.671875 5.167969 18.84375 6.046875 18.859375 6.960938 C 18.859375 8.253906 18.511719 9.445312 17.820312 10.53125 Z M 17.75 22.171875 C 18.519531 22.171875 19.183594 21.855469 19.734375 21.222656 C 20.285156 20.59375 20.5625 19.828125 20.5625 18.929688 C 20.5625 16.816406 20.214844 15.152344 19.523438 13.9375 C 18.828125 12.722656 17.835938 12.09375 16.542969 12.046875 C 15.265625 13.148438 13.789062 13.703125 12.117188 13.703125 C 10.445312 13.703125 8.964844 13.148438 7.671875 12.046875 C 6.378906 12.09375 5.382812 12.722656 4.691406 13.9375 C 3.996094 15.152344 3.648438 16.816406 3.648438 18.929688 C 3.648438 19.828125 3.925781 20.59375 4.476562 21.222656 C 5.027344 21.855469 5.691406 22.171875 6.464844 22.171875 Z M 12.117188 1.875 C 10.714844 1.875 9.515625 2.371094 8.523438 3.363281 C 7.527344 4.359375 7.03125 5.554688 7.03125 6.960938 C 7.03125 8.363281 7.527344 9.554688 8.523438 10.53125 C 9.515625 11.507812 10.714844 12.007812 12.117188 12.023438 C 13.523438 12.039062 14.710938 11.539062 15.691406 10.53125 C 16.667969 9.523438 17.164062 8.332031 17.179688 6.960938 C 17.195312 5.585938 16.699219 4.390625 15.691406 3.363281 C 14.679688 2.339844 13.488281 1.84375 12.117188 1.875 Z M 12.117188 1.875 "/>
</g>
</defs>
<g id="surface1">
<use xlink:href="#surface5"/>
</g>
</svg>
