<?xml version="1.0" encoding="UTF-8"?>
<svg xmlns="http://www.w3.org/2000/svg" xmlns:xlink="http://www.w3.org/1999/xlink" width="24pt" height="24pt" viewBox="0 0 24 24" version="1.1">
<defs>
<clipPath id="clip1">
  <rect x="0" y="0" width="24" height="24"/>
</clipPath>
<g id="surface5" clip-path="url(#clip1)">
<path style=" stroke:none;fill-rule:nonzero;fill:rgb(56.862745%,56.862745%,56.862745%);fill-opacity:1;" d="M 20.265625 12.027344 C 20.265625 14.09375 19.582031 15.902344 18.214844 17.449219 C 16.847656 19 15.152344 19.925781 13.132812 20.230469 L 13.132812 21.503906 L 16.710938 21.503906 C 17.027344 21.503906 17.304688 21.628906 17.53125 21.871094 C 17.757812 22.113281 17.878906 22.394531 17.894531 22.714844 C 17.910156 23.03125 17.789062 23.304688 17.53125 23.535156 C 17.273438 23.761719 17 23.882812 16.710938 23.898438 L 7.210938 23.898438 C 6.890625 23.898438 6.609375 23.777344 6.367188 23.535156 C 6.125 23.289062 6.011719 23.015625 6.027344 22.714844 C 6.042969 22.410156 6.15625 22.128906 6.367188 21.871094 C 6.582031 21.613281 6.859375 21.492188 7.210938 21.503906 L 10.789062 21.503906 L 10.789062 20.230469 C 8.753906 19.941406 7.050781 19.015625 5.683594 17.449219 C 4.316406 15.886719 3.640625 14.078125 3.65625 12.027344 L 3.65625 9.660156 C 3.65625 9.339844 3.777344 9.058594 4.019531 8.816406 C 4.265625 8.574219 4.546875 8.453125 4.863281 8.453125 C 5.183594 8.453125 5.457031 8.574219 5.683594 8.816406 C 5.914062 9.058594 6.027344 9.339844 6.027344 9.660156 L 6.027344 12.027344 C 6.027344 13.652344 6.609375 15.042969 7.78125 16.199219 C 8.949219 17.351562 10.347656 17.9375 11.972656 17.953125 C 13.597656 17.96875 14.996094 17.382812 16.164062 16.199219 C 17.332031 15.011719 17.910156 13.625 17.894531 12.027344 L 17.894531 9.660156 C 17.894531 9.339844 18.015625 9.058594 18.261719 8.816406 C 18.503906 8.574219 18.785156 8.453125 19.101562 8.453125 C 19.421875 8.453125 19.695312 8.574219 19.921875 8.816406 C 20.152344 9.058594 20.265625 9.339844 20.265625 9.660156 Z M 11.972656 16.765625 C 10.664062 16.765625 9.550781 16.304688 8.625 15.378906 C 7.695312 14.449219 7.226562 13.335938 7.210938 12.027344 L 7.210938 4.898438 C 7.210938 3.59375 7.679688 2.476562 8.625 1.550781 C 9.566406 0.621094 10.679688 0.152344 11.972656 0.136719 C 13.261719 0.121094 14.378906 0.59375 15.320312 1.550781 C 16.261719 2.507812 16.726562 3.621094 16.710938 4.898438 L 16.710938 12.027344 C 16.710938 13.335938 16.246094 14.449219 15.320312 15.378906 C 14.394531 16.304688 13.277344 16.765625 11.972656 16.765625 Z M 11.972656 2.527344 C 11.304688 2.527344 10.742188 2.765625 10.285156 3.234375 C 9.832031 3.707031 9.59375 4.261719 9.578125 4.898438 L 9.578125 12.027344 C 9.578125 12.667969 9.816406 13.222656 10.285156 13.691406 C 10.757812 14.164062 11.320312 14.394531 11.972656 14.386719 C 12.625 14.378906 13.179688 14.148438 13.636719 13.691406 C 14.089844 13.234375 14.324219 12.683594 14.339844 12.027344 L 14.339844 4.898438 C 14.339844 4.261719 14.105469 3.707031 13.636719 3.234375 C 13.164062 2.765625 12.609375 2.527344 11.972656 2.527344 Z M 11.972656 2.527344 "/>
</g>
</defs>
<g id="surface1">
<use xlink:href="#surface5"/>
</g>
</svg>
