<?xml version="1.0" encoding="utf-8"?>
<!-- Generator: Adobe Illustrator 23.0.3, SVG Export Plug-In . SVG Version: 6.00 Build 0)  -->
<svg version="1.1" id="Layer_1" xmlns="http://www.w3.org/2000/svg" xmlns:xlink="http://www.w3.org/1999/xlink" x="0px" y="0px"
	 viewBox="0 0 512 151.1" style="enable-background:new 0 0 512 151.1;" xml:space="preserve">
<style type="text/css">
	.st0{fill:#FFFFFF;}
</style>
<g>
	<g>
		<path class="st0" d="M73.1,41.3C73,61,73,80.9,73.1,100.7c19.8,0,39.6,0.1,59.4-0.1c-0.1-19.8-0.1-39.4,0-59.2
			C112.7,41.2,92.9,41.3,73.1,41.3z M118.3,58.7c-3.7,0.6-7.6,0.2-11.4,0.3c-0.3,10.5-0.1,21.1-0.1,31.6c-2.7,0-5.2,0.1-7.8,0
			c-0.1-10.5,0.1-21.1-0.1-31.7c-4.6,0.1-9.3,0.2-13.9,0c0-2.5,0-5,0-7.4c11.9,0,23.7,0,35.5,0C120.3,53.9,121.3,57.8,118.3,58.7z"
			/>
	</g>
	<path class="st0" d="M496.5,57.1c-5.8-4.7-13.3-6.5-20.2-8.9c-2.3-1-5.1-1.8-6.5-4c-0.6-2.9,2.4-4.9,5-5c7.4-0.4,14.4,2.9,20.2,7.2
		c5.1-6,10-12.1,15-18.2c-9.6-9-23.6-11.1-36.2-9.7c-7.3,0.7-14,3.8-19.8,8.1c0.9-2.4,1.9-4.6,2.9-6.9c-8,0-15.9-0.1-23.8,0
		c-1.2-0.3-1.5,1.4-2,2.1C425.7,34.5,420.6,47,415,59.4c-1-13.4-2.2-26.7-3.3-40.1c-7.1-0.1-14.2,0-21.3-0.1
		c-5.9,13.1-11.4,26.4-17.4,39.5c-1.9-12.9-2.6-26.1-4-39c-27-0.1-54.1,0-81.3-0.1c-4.8,26.9-9.5,53.9-14.3,80.8
		c20,0.2,40.1,0.2,60.2,0c1.1-7.2,2.5-14.3,3.6-21.4c-11.7,0-23.3,0.1-35,0c0.4-3.1,1-6.1,1.5-9.1c10.7-0.3,21.4,0,32.1-0.2
		c1.1-6.6,2.5-13.1,3.3-19.7c-10.5,0-21.2,0-31.7,0c0.4-3,1-6,1.5-9c11.5-0.1,23,0,34.6-0.1c0.5-3.1,1-6.3,1.9-9.3
		c2.1,23.1,3.8,46.3,5.8,69.4c8,0,16,0,24,0c5.3-11.1,10.2-22.4,15.9-33.3c1.3,11.1,2.3,22.2,3.3,33.2c8.7,0.2,17.4,0.1,26.1,0.1
		c7.7-16.9,15.2-33.9,22.8-50.8c0.7,3.9,1.8,8.1,4.8,10.9c6.3,6.2,15.2,8.4,23.2,11.2c2.1,0.9,4.8,1.6,5.6,3.9
		c0.2,3.1-3,4.8-5.8,4.8c-8.7,0.4-17.1-3.5-23.7-9c-5.1,6.1-10.4,12.1-15.3,18.3c9.9,9.3,24,12.5,37.2,11.7
		c8.6-0.5,17.2-3.4,23.7-9.1c6.6-5.8,10.5-14.9,10-23.7C502.9,64.4,500.3,60.1,496.5,57.1z"/>
	<path class="st0" d="M261.8,19.8c-1.8,10.2-3.6,20.3-5.3,30.4c-0.5,2.9-1,5.8-1.9,8.7c-2.7-13-5.3-26.1-7.8-39.1
		c-11.2-0.1-22.2,0-33.4-0.1c-4.2,22.3-7.7,44.8-12,67c0.5-15.2,0.2-30.3,0.2-45.5c-19.8,0-39.5,0-59.3,0c0,19.8-0.2,39.6,0.1,59.4
		c26.5-0.1,53.1,0.1,79.6,0c2.7-15.2,5.4-30.5,8-45.7c3.2,15.2,5.7,30.6,8.9,45.7c10.5,0,21,0,31.5,0c4.9-26.9,9.7-53.9,14.3-80.8
		C276.9,19.8,269.3,19.7,261.8,19.8z M161.7,73.5c1.2,7.3,9.7,12,16.5,9.1c1.9-0.5,4.1-2.6,5.8-1.1c1.6,1.1,2.7,2.6,4,4.1
		c-3.9,3-8.6,5.5-13.6,5.5c-9.4,0.3-18.3-6.7-20.1-16c-2.5-9.9,4.3-20.8,14.1-23.5c6.8-2.2,14.5,0,19.7,5c-1.7,1.8-3.4,3.5-5.1,5.2
		c-3.5-2.4-7.7-4.3-12-3C164.5,60.2,160.1,67.2,161.7,73.5z"/>
	<g>
		<path class="st0" d="M4,41.3C3.9,61,3.9,80.9,4,100.7c19.8,0,39.6,0.1,59.4-0.1c-0.1-19.8-0.1-39.4,0-59.2
			C43.6,41.2,23.8,41.3,4,41.3z M40.1,85.5c-0.5,1.3-1,2.6-1.7,3.7c0,0,0,0,0,0c0,0-0.1,0.1-0.1,0.1c-0.3,0.3-0.6,0.7-1.1,1
			c-0.6,0.2-1.3,0.3-1.9,0.4h-3.7H31h-1.6l-0.1-0.4c0,0,0,0,0,0c-5.1-12.8-10-25.9-15.2-38.8c2.8,0,5.8,0,8.6,0
			c3.8,9.3,6.9,18.9,11.2,28c3.7-9.3,7.2-18.8,10.9-28c2.8,0,5.7,0,8.4,0C48.9,62.9,44.4,74.2,40.1,85.5z"/>
	</g>
	<g>
		<rect x="187.6" y="113.6" class="st0" width="3.3" height="2.9"/>
		<rect x="186.9" y="119" class="st0" width="4.5" height="16.9"/>
		<polygon class="st0" points="156.7,122.8 147.1,122.8 147.1,113.8 142.5,113.8 142.5,136.5 147.1,136.5 147.1,127.4 156.7,127.4 
			156.7,136.5 161.2,136.5 161.2,113.8 156.7,113.8 		"/>
		<path class="st0" d="M184.8,117.7c-1.9,0-1.9,0-1.9,0s0.5,2.9-1.6,2.6c-1.7-1.7-4-2.8-6.6-2.8c-5.2,0-9.4,4.4-9.4,9.8
			s4.2,9.8,9.4,9.8c5.2,0,9.4-4.4,9.4-9.8c0-1.8-0.5-3.5-1.3-5c0-0.1,0.1-1,0.8-0.9c0.8,0.1,1.6-0.1,2-1.7
			C185.7,118.6,185,117.6,184.8,117.7z M174.7,132c-2.6,0-4.6-2.1-4.6-4.8c0-2.6,2.1-4.8,4.6-4.8c2.6,0,4.6,2.1,4.6,4.8
			C179.3,129.9,177.3,132,174.7,132z"/>
		<path class="st0" d="M209.5,114.7h-4.2v4.3h-2.5v3.6h2.5v9.1h0c0,0.5,0,1,0,1.3h0c0,0,0,0,0,0c0,0,0,0.1,0,0.1
			c0.2,2,1.5,2.9,2.4,3.3c0,0,1.2,0.3,2.4,0.3l0,0c0,0,0.8,0,1.2-0.1c0,0,0,0,0,0c0,0,0,0,0,0c0,0,0,0,0,0c0.2-0.1,0.4-0.1,0.5-0.2
			h0c0,0,0,0,0,0c0,0,0,0,0,0l0,0c0,0,0,0,0.1,0c0,0,0,0,0,0c0,0,0,0,0,0c0.8-0.5,1.3-1.1,1.3-1.1s0.1,0,0.2-3.7
			c-3.8,3.1-4.1-1.6-4.1-1.6v-7.3h4.3V119h-4.3V114.7z"/>
		<path class="st0" d="M254,117.7c-1.9,0-1.9,0-1.9,0s0.5,2.9-1.6,2.6c-1.7-1.7-4-2.8-6.6-2.8c-5.2,0-9.4,4.4-9.4,9.8
			s4.2,9.8,9.4,9.8c5.2,0,9.4-4.4,9.4-9.8c0-1.8-0.5-3.5-1.3-5c0-0.1,0.1-1,0.8-0.9c0.8,0.1,1.6-0.1,2-1.7
			C254.9,118.6,254.3,117.6,254,117.7z M243.9,132c-2.6,0-4.6-2.1-4.6-4.8c0-2.6,2.1-4.8,4.6-4.8c2.6,0,4.6,2.1,4.6,4.8
			C248.6,129.9,246.5,132,243.9,132z"/>
		<path class="st0" d="M243.8,116.5h0.4l1.4-0.1c0,0,0.1,0,1.6-1.9c2.3-4-2.7-3.5-3.3-3.5s-0.1,1.6,0.2,1.9c3.5-0.7-0.6,3.3-0.6,3.3
			L243.8,116.5z"/>
		<path class="st0" d="M293.2,119.9v5.7v1.2v5.3c-0.6,0.6-1.7,1-2.9,1c-2.1,0-3.1-1.1-3.1-3.6v-2.7v-1.2v-5.7v-1.2h-4.5v1.2v5.7v1.2
			v2.7v1.2c0,4.2,2.4,6.4,6.4,6.4c1.7,0,3.1-0.5,4.1-1.2v0.9h4.5v-1.2v-8.8v-1.2v-5.7v-1.2h-4.5V119.9z"/>
		<path class="st0" d="M393.2,118.9c-1.7,0-3.1,0.5-4.1,1.2v-0.9h-4.5v1.2v8.8v1.2v2.5v1.2v2.8h4.5v-2.8V133v-2.5v-1.2V124
			c0.6-0.6,1.7-1,2.9-1c2.1,0,3.1,1.1,3.1,3.6v2.7v1.2v2.5v1.2v2.8h4.5v-2.8V133v-2.5v-1.2v-2.7v-1.2
			C399.7,121.1,397.3,118.9,393.2,118.9z"/>
		<path class="st0" d="M225.6,119.2c-1.7,0-3.1,0.5-4.1,1.2v-0.3v-0.2v-7H217v7v0.2v1.6v8v0.4v6v0.7h4.5v-0.7v-6v-0.4v-5.3
			c0.6-0.5,1.7-0.9,2.9-0.9c2.1,0,3.1,0.9,3.1,3.2v3v0.4v6v0.7h4.5v-0.7v-6v-0.4v-3v-1C232.1,121.4,229.7,119.2,225.6,119.2z"/>
		<path class="st0" d="M319.3,125.1c-0.1-0.4-0.2-0.8-0.4-1.1c0,0,0,0,0,0c-0.1-0.3-0.3-0.5-0.4-0.8c-0.7-1.2-1.4-2.1-1.7-2.4
			c-1.7-1.7-4-2.7-6.5-2.7c-5.2,0-9.4,4.4-9.4,9.8c0,5.4,4.2,9.8,9.4,9.8c5.2,0,9.4-4.4,9.4-9.8c0-0.9-0.1-1.7-0.3-2.5
			C319.4,125.3,319.3,125.2,319.3,125.1z M310.3,132.6c-2.6,0-4.6-2.1-4.6-4.8s2.1-4.8,4.6-4.8c2.6,0,4.6,2.1,4.6,4.8
			S312.8,132.6,310.3,132.6z"/>
		<polygon class="st0" points="372.3,115 374,116.7 376.8,116.7 373.9,113.1 370.7,113.1 367.7,116.7 370.6,116.7 		"/>
		<polygon class="st0" points="377.1,108.4 374.1,107.6 374,107.6 371.1,111.2 374,111.2 		"/>
		<polygon class="st0" points="310.5,115 312.1,116.7 315,116.7 312,113.1 308.9,113.1 305.9,116.7 308.8,116.7 		"/>
		<rect x="308.7" y="138.4" class="st0" width="3.2" height="3.2"/>
		<path class="st0" d="M280.5,131.8C280.5,131.8,280.5,131.8,280.5,131.8C280.5,131.8,280.5,131.8,280.5,131.8l-2.4-1.7
			c-0.2-0.1-0.3-0.2-0.4-0.2c0,0-0.1,0-0.1,0c0,0-0.1,0-0.1,0c-0.3,0-0.4,0.1-0.5,0.1c0,0-0.1,0.1-0.1,0.1v0l-0.3,0.4l0,0
			c0,0,0,0,0,0l0,0l0,0c0,0,0,0.1-0.1,0.1c0,0,0,0-0.1,0.1c-0.2,0.2-0.3,0.3-0.5,0.4c-0.1,0.1-0.2,0.2-0.4,0.2c0,0-0.1,0-0.1,0.1
			c-0.6,0.3-1.3,0.5-2,0.6c0,0-0.1,0-0.1,0c-0.3,0-0.5,0-0.8-0.1c0,0-0.1,0-0.1,0c-0.2-0.1-0.5-0.1-0.7-0.2c-0.1,0-0.1,0-0.2-0.1
			c-0.2-0.1-0.4-0.2-0.6-0.3c-0.1,0-0.1-0.1-0.2-0.1c-0.2-0.1-0.3-0.3-0.5-0.4c0,0-0.1-0.1-0.1-0.1c-0.2-0.2-0.4-0.4-0.5-0.7
			c0,0,0,0,0,0c-0.5-0.8-0.8-1.7-0.8-2.7c0-0.1,0-0.2,0-0.3c0.2-2.5,2.1-4.5,4.5-4.5c1,0,1.9,0.4,2.6,1c0.3,0.2,0.6,0.5,0.7,0.6l0,0
			c0,0,0.3,0.5,1.1-0.3l2.1-1.9c0.8-0.8-0.2-1.8-0.5-2h0c-1.6-1.5-3.7-2.4-6-2.4c-5,0-9,4.2-9.2,9.4c0,0.1,0,0.2,0,0.3
			c0,0.1,0,0.1,0,0.2l0,0c0,0,0,1.4,0.2,1.9l0,0c0.1,0.6,0.3,1.1,0.5,1.6c0,0.1,0.1,0.2,0.1,0.3c0.1,0.1,0.1,0.3,0.2,0.4
			c0.1,0.2,0.2,0.4,0.3,0.6c0,0,0,0,0,0.1c1.2,2.1,3.1,3.7,5.4,4.3c0,0,0.1,0,0.1,0c0.2,0.1,0.4,0.1,0.7,0.2c0.2,0,0.3,0.1,0.5,0.1
			c0.1,0,0.2,0,0.3,0c0.7,0.1,1.4,0.1,2.1,0c2.4-0.3,4.4-1.6,5.9-3.4l0,0C280.3,133.5,281.5,132.3,280.5,131.8z"/>
		<path class="st0" d="M338.2,131.9C338.2,131.9,338.2,131.9,338.2,131.9C338.2,131.9,338.2,131.9,338.2,131.9l-2.4-1.7
			c-0.2-0.1-0.3-0.2-0.4-0.2c0,0-0.1,0-0.1,0c0,0-0.1,0-0.1,0c-0.3,0-0.4,0.1-0.5,0.1c0,0-0.1,0.1-0.1,0.1v0l-0.3,0.4l0,0
			c0,0,0,0,0,0l0,0l0,0c0,0,0,0.1-0.1,0.1c0,0,0,0-0.1,0.1c-0.2,0.2-0.3,0.3-0.5,0.4c-0.1,0.1-0.2,0.2-0.4,0.2c0,0-0.1,0-0.1,0.1
			c-0.6,0.3-1.3,0.5-2,0.6c0,0-0.1,0-0.1,0c-0.3,0-0.5,0-0.8-0.1c0,0-0.1,0-0.1,0c-0.2-0.1-0.5-0.1-0.7-0.2c-0.1,0-0.1,0-0.2-0.1
			c-0.2-0.1-0.4-0.2-0.6-0.3c-0.1,0-0.1-0.1-0.2-0.1c-0.2-0.1-0.3-0.3-0.5-0.4c0,0-0.1-0.1-0.1-0.1c-0.2-0.2-0.4-0.4-0.5-0.7
			c0,0,0,0,0,0c-0.5-0.8-0.8-1.7-0.8-2.7c0-0.1,0-0.2,0-0.3c0.2-2.5,2.1-4.5,4.5-4.5c1,0,1.9,0.4,2.6,1c0.3,0.2,0.6,0.5,0.7,0.6l0,0
			c0,0,0.3,0.5,1.1-0.3l2.1-1.9c0.8-0.8-0.2-1.8-0.5-2h0c-1.6-1.5-3.7-2.4-6-2.4c-5,0-9,4.2-9.2,9.4c0,0.1,0,0.2,0,0.3
			c0,0.1,0,0.1,0,0.2l0,0c0,0,0,1.4,0.2,1.9l0,0c0.1,0.6,0.3,1.1,0.5,1.6c0,0.1,0.1,0.2,0.1,0.3c0.1,0.1,0.1,0.3,0.2,0.4
			c0.1,0.2,0.2,0.4,0.3,0.6c0,0,0,0,0,0.1c1.2,2.1,3.1,3.7,5.4,4.3c0,0,0.1,0,0.1,0c0.2,0.1,0.4,0.1,0.7,0.2c0.2,0,0.3,0.1,0.5,0.1
			c0.1,0,0.2,0,0.3,0c0.7,0.1,1.4,0.1,2.1,0c2.4-0.3,4.4-1.6,5.9-3.4l0,0C338.1,133.6,339.2,132.4,338.2,131.9z"/>
		<path class="st0" d="M381.2,125.1c-0.1-0.4-0.2-0.8-0.4-1.1c0,0,0,0,0,0c-0.1-0.3-0.3-0.5-0.4-0.8c-0.7-1.2-1.4-2.1-1.7-2.4
			c-1.7-1.7-4-2.7-6.5-2.7c-5.2,0-9.4,4.4-9.4,9.8s4.2,9.8,9.4,9.8c5.2,0,9.4-4.4,9.4-9.8c0-0.9-0.1-1.7-0.3-2.5
			C381.2,125.2,381.2,125.1,381.2,125.1z M372.1,132.5c-2.6,0-4.6-2.1-4.6-4.8c0-2.6,2.1-4.8,4.6-4.8c2.6,0,4.6,2.1,4.6,4.8
			C376.7,130.4,374.7,132.5,372.1,132.5z"/>
		<path class="st0" d="M355.6,126c-2.4-0.8-3.1-1.4-3.1-2.3c0-0.8,0.7-1.3,2.4-1.3c1.6,0,3.3,0.5,4.6,1.2l0.3-3.6
			c-1.6-0.7-3.5-1.1-5.4-1.1c-4.3,0-6.7,1.8-6.7,5.1c0,2.4,1.5,4.2,4.9,5.3c2.6,0.8,3.3,1.4,3.3,2.3c0,1.2-0.8,1.7-2.6,1.7
			c-2,0-3.8-0.6-5.4-1.8l-0.2,4c1.8,0.9,3.9,1.4,6.1,1.4c4.6,0,6.9-2,6.9-5.5C360.7,129,359.5,127.2,355.6,126z"/>
		<path class="st0" d="M415.2,119.2v1c-1-0.9-2.6-1.4-4.4-1.4c-4.4,0-8,3.1-8,8.1c0,5,3.6,8.1,8,8.1c1.8,0,3.5-0.5,4.4-1.4v0.7
			c0,2.6-1.8,3.6-4.6,3.6c-2,0-4.1-0.5-5.7-1.6l-0.3,3.6c1.8,0.8,4,1.2,6.3,1.2c6.8,0,9.4-2.3,9.4-7.6v-14.3H415.2z M411.3,130.5
			c-2.2-0.2-3.8-2.1-3.6-4.2c0.2-2.2,2.1-3.8,4.2-3.6c2.2,0.2,3.8,2.1,3.6,4.2C415.3,129.1,413.4,130.7,411.3,130.5z"/>
	</g>
</g>
</svg>
