<?xml version="1.0" encoding="UTF-8"?>
<svg xmlns="http://www.w3.org/2000/svg" xmlns:xlink="http://www.w3.org/1999/xlink" width="23pt" height="20pt" viewBox="0 0 23 20" version="1.1">
<g id="surface1">
<path style=" stroke:none;fill-rule:nonzero;fill:rgb(100%,100%,100%);fill-opacity:1;" d="M 22.953125 10.730469 C 22.953125 12.257812 22.671875 13.699219 22.117188 15.0625 L 21.84375 15.726562 L 19.3125 16.167969 C 19.097656 16.9375 18.679688 17.574219 18.054688 18.066406 C 17.433594 18.558594 16.722656 18.796875 15.914062 18.78125 L 15.914062 19.21875 C 15.914062 19.351562 15.875 19.460938 15.792969 19.539062 C 15.710938 19.621094 15.601562 19.660156 15.46875 19.660156 L 14.582031 19.660156 C 14.46875 19.660156 14.371094 19.621094 14.289062 19.539062 C 14.203125 19.460938 14.152344 19.351562 14.140625 19.21875 L 14.140625 11.324219 C 14.140625 11.191406 14.191406 11.085938 14.289062 11.003906 C 14.382812 10.925781 14.484375 10.882812 14.582031 10.882812 L 15.46875 10.882812 C 15.597656 10.882812 15.710938 10.925781 15.792969 11.003906 C 15.875 11.089844 15.914062 11.191406 15.914062 11.324219 L 15.914062 11.765625 C 16.574219 11.765625 17.164062 11.921875 17.6875 12.234375 C 18.210938 12.542969 18.640625 12.992188 18.964844 13.5625 L 19.898438 13.390625 C 20.160156 12.519531 20.296875 11.632812 20.296875 10.730469 C 20.296875 9.390625 19.894531 8.117188 19.089844 6.921875 C 18.285156 5.722656 17.203125 4.765625 15.84375 4.042969 C 14.480469 3.320312 13.035156 2.96875 11.515625 2.984375 C 9.988281 3.003906 8.546875 3.355469 7.183594 4.042969 C 5.824219 4.730469 4.742188 5.691406 3.9375 6.921875 C 3.132812 8.148438 2.730469 9.421875 2.730469 10.730469 C 2.730469 11.632812 2.859375 12.519531 3.128906 13.390625 L 4.0625 13.5625 C 4.375 13.003906 4.796875 12.5625 5.339844 12.234375 C 5.882812 11.90625 6.480469 11.75 7.132812 11.765625 L 7.132812 11.324219 C 7.132812 11.191406 7.175781 11.085938 7.257812 11.003906 C 7.339844 10.925781 7.449219 10.882812 7.582031 10.882812 L 8.441406 10.882812 C 8.570312 10.882812 8.679688 10.925781 8.761719 11.003906 C 8.847656 11.089844 8.886719 11.191406 8.886719 11.324219 L 8.886719 19.21875 C 8.886719 19.351562 8.847656 19.460938 8.761719 19.539062 C 8.679688 19.621094 8.574219 19.660156 8.441406 19.660156 L 7.582031 19.660156 C 7.449219 19.660156 7.339844 19.621094 7.257812 19.539062 C 7.175781 19.460938 7.132812 19.351562 7.132812 19.21875 L 7.132812 18.78125 C 6.328125 18.78125 5.605469 18.539062 4.96875 18.066406 C 4.328125 17.589844 3.917969 16.957031 3.738281 16.167969 L 1.210938 15.726562 L 0.9375 15.0625 C 0.382812 13.699219 0.101562 12.257812 0.101562 10.730469 C 0.101562 9.355469 0.40625 8.023438 1.011719 6.746094 C 1.621094 5.46875 2.4375 4.363281 3.472656 3.425781 C 4.507812 2.492188 5.726562 1.738281 7.140625 1.164062 C 8.550781 0.589844 10.007812 0.308594 11.519531 0.328125 C 13.027344 0.347656 14.496094 0.625 15.921875 1.164062 C 17.347656 1.703125 18.5625 2.460938 19.558594 3.425781 C 20.558594 4.394531 21.378906 5.503906 22.019531 6.75 C 22.660156 7.996094 22.96875 9.324219 22.953125 10.730469 Z M 22.953125 10.730469 "/>
</g>
</svg>
